<svg width="44" height="44" viewBox="0 0 44 44" fill="none" xmlns="http://www.w3.org/2000/svg">
<g clip-path="url(#clip0_6563_126)">
<circle cx="22" cy="22" r="22" fill="#0098EA"/>
<path d="M29.514 12.1001H14.4898C11.7274 12.1001 9.97653 15.08 11.3663 17.4888L20.6386 33.5605C21.2437 34.6098 22.7601 34.6098 23.3651 33.5605L32.6394 17.4888C34.0273 15.0837 32.2764 12.1001 29.5159 12.1001H29.514ZM20.6311 28.7409L18.6117 24.8326L13.7392 16.118C13.4177 15.5602 13.8148 14.8455 14.4879 14.8455H20.6292V28.7428L20.6311 28.7409ZM30.2608 16.1161L25.3902 24.8345L23.3708 28.7409V14.8436H29.5121C30.1852 14.8436 30.5823 15.5583 30.2608 16.1161Z" fill="white"/>
</g>
<defs>
<clipPath id="clip0_6563_126">
<rect width="44" height="44" fill="white"/>
</clipPath>
</defs>
</svg>
